<svg width="300" height="50" viewBox="0 0 300 50" fill="none" xmlns="http://www.w3.org/2000/svg">
<path d="M288.941 3.57812H295.959V42.9607H288.941V39.7968H287.848C286.18 42.1554 283.648 43.4785 280.369 43.4785H279.737C273.812 43.4785 270.188 39.5092 270.188 31.3406V27.0086C270.188 18.84 273.812 14.8707 279.737 14.8707H280.369C283.648 14.8707 286.18 16.2514 287.848 18.4373H288.941V3.57812ZM282.786 20.6233C279.334 20.6233 277.206 22.8668 277.206 26.8935V31.4557C277.206 35.54 279.334 37.7835 282.786 37.7835H283.418C286.87 37.7835 288.941 35.54 288.941 31.4557V26.8935C288.941 22.8668 286.87 20.6233 283.418 20.6233H282.786Z" fill="#121212"/>
<path d="M239.641 15.3888H246.659V18.7253H247.752C249.075 16.4818 251.663 14.8711 255.172 14.8711H255.805C260.925 14.8711 264.319 17.9199 264.319 25.3982V42.9611H257.243V26.8363C257.243 22.9246 255.403 21.0263 252.354 21.0263H251.721C248.672 21.0263 246.659 22.9246 246.659 26.8363V42.9611H239.641V15.3888Z" fill="#121212"/>
<path d="M225.822 15.3877H232.84V42.9599H225.822V15.3877ZM229.044 4.90039H229.562C231.805 4.90039 233.301 6.33852 233.301 8.06427V9.20594C233.301 10.9892 231.805 12.4273 229.562 12.4273H229.044C226.858 12.4273 225.305 10.9892 225.305 9.20594V8.06427C225.305 6.33852 226.858 4.90039 229.044 4.90039Z" fill="#121212"/>
<path d="M179.758 15.3888H186.776V18.7253H187.754C189.077 16.4818 191.55 14.8711 194.714 14.8711H195.29C198.396 14.8711 200.639 16.0791 202.02 18.7253H203.286C204.781 16.1366 207.542 14.8711 210.534 14.8711H211.109C216.516 14.8711 219.393 17.9775 219.393 25.5133V42.9611H212.317V26.3186C212.317 22.5219 210.706 20.9112 208.003 20.9112H207.427C204.724 20.9112 203.113 22.5219 203.113 26.3761V42.9611H196.037V26.3186C196.037 22.5219 194.369 20.9112 191.723 20.9112H191.148C188.444 20.9112 186.776 22.5219 186.776 26.3186V42.9611H179.758V15.3888Z" fill="#121212"/>
<path d="M154.786 7.27734H161.862V15.3884H173.712V20.6807H161.862V34.3894C161.862 36.7479 162.897 37.956 164.738 37.956H165.371C167.269 37.956 168.189 36.7479 168.189 34.3894V31.7919H174.46V34.3894C174.46 41.0623 170.548 43.4784 165.256 43.4784H164.623C159.215 43.4784 154.786 41.0623 154.786 34.3894V20.6807H151.047V15.3884H154.786V7.27734Z" fill="#121212"/>
<path d="M134.816 14.0742H135.449C142.985 14.0742 147.759 18.216 147.759 26.2696V30.8141H129.121V31.8583C129.121 36.3453 131.365 38.3587 134.816 38.3587H135.449C138.843 38.3587 140.684 36.6905 141.029 33.1239H147.587C147.242 39.6818 143.042 43.4784 135.449 43.4784H134.816C127.338 43.4784 122.391 39.3941 122.391 31.3406V26.2696C122.391 18.216 127.338 14.0742 134.816 14.0742ZM134.759 19.2515C131.192 19.2515 129.121 21.3224 129.121 25.3492V25.9819H141.029V25.3492C141.029 21.3224 138.785 19.2515 135.391 19.2515H134.759Z" fill="#121212"/>
<path d="M95.1562 3.57812H102.174V26.3271H103.612L111.781 15.3885H119.202L110.343 27.305V29.3759L120.065 42.9607H112.011L103.612 31.6769H102.174V42.9607H95.1562V3.57812Z" fill="#121212"/>
<path d="M76.3232 14.8711H76.956C84.2617 14.8711 88.8061 18.8979 88.8061 26.146V26.3275H82.0182V26.146C82.0182 22.8096 80.4075 20.6236 76.956 20.6236H76.3232C72.8717 20.6236 71.0884 22.8096 71.0884 26.7788V31.6286C71.0884 35.4828 72.8717 37.7838 76.3232 37.7838H76.956C80.3499 37.7838 82.1332 35.5403 82.1332 32.3764V32.3676H88.9212V32.3764C88.9212 39.3945 84.3192 43.4788 76.956 43.4788H76.3232C68.96 43.4788 64.0703 39.2795 64.0703 31.341V27.0664C64.0703 19.0129 68.96 14.8711 76.3232 14.8711Z" fill="#121212"/>
<path d="M45.6605 14.8711H46.2933C53.5415 14.8711 58.8338 19.0129 58.8338 27.0089V31.341C58.8338 39.3945 53.5415 43.4788 46.2933 43.4788H45.6605C38.3548 43.4788 33.0625 39.3945 33.0625 31.341V27.0089C33.0625 19.0129 38.3548 14.8711 45.6605 14.8711ZM45.6605 20.6236C42.0364 20.6236 40.0806 22.8096 40.0806 26.8939V31.456C40.0806 35.5403 42.0364 37.7838 45.6605 37.7838H46.2933C49.8599 37.7838 51.8157 35.5403 51.8157 31.456V26.8939C51.8157 22.8096 49.8599 20.6236 46.2933 20.6236H45.6605Z" fill="#121212"/>
<path d="M1.0625 6.01172H15.1562C23.0947 6.01172 27.7542 9.69333 27.7542 16.7689V18.446C27.7542 23.1055 25.6258 26.442 21.8291 28.1102L29.3074 42.9606H21.599L14.7535 29.3183H8.3682V42.9606H1.0625V6.01172ZM8.3682 11.9368V23.3932H14.4083C18.205 23.3932 20.5635 21.7249 20.5635 18.1584V17.0566C20.5635 13.49 18.205 11.9368 14.4083 11.9368H8.3682Z" fill="#121212"/>
</svg>
