<svg width="300" height="50" viewBox="0 0 300 50" fill="none" xmlns="http://www.w3.org/2000/svg">
<path d="M288.941 3.83789H295.959V43.2205H288.941V40.0566H287.848C286.18 42.4151 283.648 43.7382 280.369 43.7382H279.737C273.812 43.7382 270.188 39.769 270.188 31.6004V27.2683C270.188 19.0998 273.812 15.1305 279.737 15.1305H280.369C283.648 15.1305 286.18 16.5111 287.848 18.6971H288.941V3.83789ZM282.786 20.883C279.334 20.883 277.206 23.1265 277.206 27.1533V31.7155C277.206 35.7997 279.334 38.0432 282.786 38.0432H283.418C286.87 38.0432 288.941 35.7997 288.941 31.7155V27.1533C288.941 23.1265 286.87 20.883 283.418 20.883H282.786Z" fill="#FAFAFA"/>
<path d="M239.641 15.6486H246.659V18.985H247.752C249.075 16.7416 251.663 15.1309 255.172 15.1309H255.805C260.925 15.1309 264.319 18.1797 264.319 25.658V43.2208H257.243V27.0961C257.243 23.1844 255.403 21.2861 252.354 21.2861H251.721C248.672 21.2861 246.659 23.1844 246.659 27.0961V43.2208H239.641V15.6486Z" fill="#FAFAFA"/>
<path d="M225.822 15.6474H232.84V43.2197H225.822V15.6474ZM229.044 5.16016H229.562C231.805 5.16016 233.301 6.59828 233.301 8.32404V9.4657C233.301 11.249 231.805 12.6871 229.562 12.6871H229.044C226.858 12.6871 225.305 11.249 225.305 9.4657V8.32404C225.305 6.59828 226.858 5.16016 229.044 5.16016Z" fill="#FAFAFA"/>
<path d="M179.758 15.6486H186.776V18.985H187.754C189.077 16.7416 191.55 15.1309 194.714 15.1309H195.29C198.396 15.1309 200.639 16.3389 202.02 18.985H203.286C204.781 16.3964 207.542 15.1309 210.534 15.1309H211.109C216.516 15.1309 219.393 18.2372 219.393 25.773V43.2208H212.317V26.5784C212.317 22.7817 210.706 21.171 208.003 21.171H207.427C204.724 21.171 203.113 22.7817 203.113 26.6359V43.2208H196.037V26.5784C196.037 22.7817 194.369 21.171 191.723 21.171H191.148C188.444 21.171 186.776 22.7817 186.776 26.5784V43.2208H179.758V15.6486Z" fill="#FAFAFA"/>
<path d="M154.786 7.53711H161.862V15.6482H173.712V20.9405H161.862V34.6492C161.862 37.0077 162.897 38.2157 164.738 38.2157H165.371C167.269 38.2157 168.189 37.0077 168.189 34.6492V32.0517H174.46V34.6492C174.46 41.3221 170.548 43.7381 165.256 43.7381H164.623C159.215 43.7381 154.786 41.3221 154.786 34.6492V20.9405H151.047V15.6482H154.786V7.53711Z" fill="#FAFAFA"/>
<path d="M134.816 14.334H135.449C142.985 14.334 147.759 18.4758 147.759 26.5293V31.0738H129.121V32.1181C129.121 36.6051 131.365 38.6185 134.816 38.6185H135.449C138.843 38.6185 140.684 36.9502 141.029 33.3837H147.587C147.242 39.9415 143.042 43.7382 135.449 43.7382H134.816C127.338 43.7382 122.391 39.6539 122.391 31.6004V26.5293C122.391 18.4758 127.338 14.334 134.816 14.334ZM134.759 19.5113C131.192 19.5113 129.121 21.5822 129.121 25.6089V26.2417H141.029V25.6089C141.029 21.5822 138.785 19.5113 135.391 19.5113H134.759Z" fill="#FAFAFA"/>
<path d="M95.1562 3.83789H102.174V26.5869H103.612L111.781 15.6482H119.202L110.343 27.5648V29.6357L120.065 43.2205H112.011L103.612 31.9367H102.174V43.2205H95.1562V3.83789Z" fill="#FAFAFA"/>
<path d="M76.3232 15.1309H76.956C84.2617 15.1309 88.8061 19.1576 88.8061 26.4058V26.5872H82.0182V26.4058C82.0182 23.0693 80.4075 20.8834 76.956 20.8834H76.3232C72.8717 20.8834 71.0884 23.0693 71.0884 27.0386V31.8884C71.0884 35.7426 72.8717 38.0436 76.3232 38.0436H76.956C80.3499 38.0436 82.1332 35.8001 82.1332 32.6362V32.6274H88.9212V32.6362C88.9212 39.6543 84.3192 43.7386 76.956 43.7386H76.3232C68.96 43.7386 64.0703 39.5392 64.0703 31.6008V27.3262C64.0703 19.2727 68.96 15.1309 76.3232 15.1309Z" fill="#FAFAFA"/>
<path d="M45.6605 15.1309H46.2933C53.5415 15.1309 58.8338 19.2727 58.8338 27.2687V31.6008C58.8338 39.6543 53.5415 43.7386 46.2933 43.7386H45.6605C38.3548 43.7386 33.0625 39.6543 33.0625 31.6008V27.2687C33.0625 19.2727 38.3548 15.1309 45.6605 15.1309ZM45.6605 20.8834C42.0364 20.8834 40.0806 23.0693 40.0806 27.1536V31.7158C40.0806 35.8001 42.0364 38.0436 45.6605 38.0436H46.2933C49.8599 38.0436 51.8157 35.8001 51.8157 31.7158V27.1536C51.8157 23.0693 49.8599 20.8834 46.2933 20.8834H45.6605Z" fill="#FAFAFA"/>
<path d="M1.0625 6.27148H15.1562C23.0947 6.27148 27.7542 9.9531 27.7542 17.0287V18.7058C27.7542 23.3653 25.6258 26.7018 21.8291 28.37L29.3074 43.2203H21.599L14.7535 29.578H8.3682V43.2203H1.0625V6.27148ZM8.3682 12.1966V23.6529H14.4083C18.205 23.6529 20.5635 21.9847 20.5635 18.4181V17.3163C20.5635 13.7498 18.205 12.1966 14.4083 12.1966H8.3682Z" fill="#FAFAFA"/>
</svg>
