<svg width="300" height="50" viewBox="0 0 300 50" fill="none" xmlns="http://www.w3.org/2000/svg">
<path d="M280.346 20.8778C280.234 29.4867 279.675 32.2885 278.277 36.2576H288.34V20.8778H280.346ZM274.085 15.1758H295.215V36.2576H298.961V47.6683H292.476V41.9596H275.258V47.6683H268.774V36.2576H271.848C273.693 31.45 274.085 27.1947 274.085 15.1758Z" fill="#121212"/>
<path d="M240.818 15.1758H247.638V25.8565H257.812V15.1758H264.688V41.9596H257.812V30.9994H247.638V41.9596H240.818V15.1758Z" fill="#121212"/>
<path d="M209.395 15.1774H216.215V32.8458H217.333L226.501 15.1774H234.774V41.9612H227.898V24.3487H226.78L217.668 41.9612H209.395V15.1774ZM214.034 4.4375H219.01C219.01 7.95933 220.24 8.90966 222.252 8.90966C224.209 8.90966 225.494 7.95933 225.494 4.4375H230.414V4.94062C230.414 10.419 227.283 12.7669 222.252 12.7669C217.221 12.7669 214.034 10.4749 214.034 4.94062V4.4375Z" fill="#121212"/>
<path d="M191.767 14.6733H192.382C199.873 14.6733 203.618 18.0833 203.618 24.4561V41.9602H196.798V38.662H195.736C194.059 41.3452 191.655 42.4633 188.357 42.4633C183.773 42.4633 180.139 40.0595 180.139 34.1898C180.139 28.8232 183.214 26.0806 191.152 26.0806H196.798V24.4561C196.798 21.2138 195.121 19.8722 192.382 19.8722H191.767C189.251 19.8722 187.406 21.2138 187.406 24.4002V24.8474H180.754V24.4002C180.754 18.0833 184.891 14.6733 191.767 14.6733ZM191.879 30.2733C188.133 30.2733 186.736 31.0034 186.736 33.4631C186.736 35.9228 188.301 37.2085 190.984 37.2085C193.891 37.2085 196.798 36.5902 196.798 31.6149V30.2733H191.879Z" fill="#121212"/>
<path d="M141.953 15.1758H152.574L158.276 29.9932H159.786L165.32 15.1758H175.438V41.9596H168.562V24.0083H167.277L162.134 37.3164H154.922L149.723 24.0083H148.438V41.9596H141.953V15.1758Z" fill="#121212"/>
<path d="M113.976 15.1758H137.902V20.8778H129.349V41.9596H122.529V20.8778H113.976V15.1758Z" fill="#121212"/>
<path d="M98.7406 14.6733H99.3556C106.679 14.6733 111.319 18.6982 111.319 25.7452V30.1615H93.2063V31.1711C93.2063 35.5314 95.3865 37.488 98.7406 37.488H99.3556C102.654 37.488 104.443 35.8669 104.778 32.4009H111.151C110.815 38.7738 106.735 42.4633 99.3556 42.4633H98.7406C91.4734 42.4633 86.6658 38.4942 86.6658 30.668V25.7452C86.6658 18.6982 91.4734 14.6733 98.7406 14.6733ZM98.6847 19.7045C95.2188 19.7045 93.2063 21.7169 93.2063 25.6301V25.4657H104.778V25.6301C104.778 21.7169 102.598 19.7045 99.2997 19.7045H98.6847Z" fill="#121212"/>
<path d="M60.7704 15.1758H67.5904V25.8006H68.988L76.926 15.1758H84.1374L75.5285 26.7509V28.7634L84.9759 41.9596H77.1497L68.988 30.9994H67.5904V41.9596H60.7704V15.1758Z" fill="#121212"/>
<path d="M42.4941 14.6733H43.109C50.1526 14.6733 55.2956 18.6982 55.2956 26.4686V30.668C55.2956 38.4942 50.1526 42.4633 43.109 42.4633H42.4941C35.3945 42.4633 30.2515 38.4942 30.2515 30.668V26.4686C30.2515 18.6982 35.3945 14.6733 42.4941 14.6733ZM42.4941 20.2635C38.9722 20.2635 37.0716 22.3877 37.0716 26.3568V30.7798C37.0716 34.7488 38.9722 36.929 42.4941 36.929H43.109C46.5749 36.929 48.4756 34.7488 48.4756 30.7798V26.3568C48.4756 22.3877 46.5749 20.2635 43.109 20.2635H42.4941Z" fill="#121212"/>
<path d="M0.6875 5.28644H14.104C23.1042 5.28644 26.7378 9.08778 26.7378 15.9637V18.1473C26.7378 24.8555 23.0483 28.7686 14.104 28.7686H7.78705V41.9615H0.6875V5.28644ZM7.78705 11.2121V22.843H13.7686C17.7935 22.843 19.6383 21.2778 19.6383 17.9237V16.1873C19.6383 12.7773 17.8494 11.2121 13.7686 11.2121H7.78705Z" fill="#121212"/>
</svg>
